<mxfile host="app.diagrams.net" modified="2024-02-26T08:59:15.179Z" agent="Mozilla/5.0 (Windows NT 10.0; Win64; x64; rv:123.0) Gecko/20100101 Firefox/123.0" version="23.1.6" etag="0UmEKowP4kOT_-VRPvot" type="github">
  <diagram name="Page-1" id="ZBvsDEhY-Ykt_X8PnIlu">
    <mxGraphModel>
      <root>
        <mxCell id="0" />
        <mxCell id="1" parent="0" />
      </root>
    </mxGraphModel>
  </diagram>
</mxfile>
